<svg width="40" height="40" viewBox="0 0 40 40" fill="none" xmlns="http://www.w3.org/2000/svg">
<path d="M38.6316 10.8248L28.4411 0.235781C28.296 0.0851562 28.0959 0 27.8868 0H12.6985C10.9988 0 9.61586 1.38234 9.61586 3.08141V13.8462H3.46063C2.18891 13.8462 1.1543 14.8805 1.1543 16.1519V27.6944C1.1543 28.9657 2.18891 30 3.46063 30H9.61586V36.924C9.61586 38.6201 10.9988 40 12.6985 40H35.764C37.4638 40 38.8466 38.6209 38.8466 36.9257V11.3582C38.8466 11.1593 38.7695 10.9681 38.6316 10.8248ZM28.0774 2.07664L36.443 10.7692H28.0774V2.07664ZM3.46063 28.4616C3.03719 28.4616 2.69281 28.1174 2.69281 27.6944V16.1519C2.69281 15.7288 3.03727 15.3846 3.46063 15.3846H24.2327C24.6561 15.3846 25.0005 15.7288 25.0005 16.1519V27.6944C25.0005 28.1174 24.656 28.4616 24.2327 28.4616H3.46063ZM37.3081 36.9257C37.3081 37.7726 36.6154 38.4616 35.7639 38.4616H12.6985C11.847 38.4616 11.1543 37.7719 11.1543 36.9241V30H24.2327C25.5044 30 26.539 28.9657 26.539 27.6944V16.1519C26.539 14.8805 25.5044 13.8462 24.2327 13.8462H11.1543V3.08141C11.1543 2.23055 11.847 1.53844 12.6985 1.53844H26.5389V11.5384C26.5389 11.9633 26.8834 12.3077 27.3081 12.3077H37.3081V36.9257Z" fill="black"/>
<path d="M10.3504 16.7459C10.095 16.4139 9.77796 16.1983 9.39937 16.0991C9.15297 16.033 8.62414 16 7.81281 16H5.67188V22.6076H7.00601V20.1151H7.87594C8.47992 20.1151 8.94117 20.0835 9.25968 20.0204C9.49406 19.9693 9.72468 19.8649 9.95156 19.7071C10.1784 19.5494 10.3655 19.3323 10.5127 19.0559C10.66 18.7794 10.7336 18.4384 10.7336 18.0327C10.7335 17.5069 10.6058 17.078 10.3504 16.7459ZM9.20781 18.5646C9.10718 18.7119 8.9682 18.82 8.79086 18.8891C8.61351 18.9583 8.26203 18.9928 7.73617 18.9928H7.00601V17.1178H7.65054C8.13133 17.1178 8.45133 17.1328 8.61054 17.1629C8.82687 17.202 9.0057 17.2996 9.14687 17.4559C9.28812 17.6121 9.35875 17.8105 9.35875 18.0508C9.35882 18.2461 9.30843 18.4173 9.20781 18.5646Z" fill="black"/>
<path d="M17.1473 17.8052C17.003 17.383 16.7927 17.0262 16.5163 16.7347C16.2398 16.4432 15.9077 16.2404 15.5202 16.1262C15.2317 16.042 14.8125 16 14.2627 16H11.8242V22.6076H14.3348C14.8276 22.6076 15.2212 22.561 15.5156 22.4678C15.9093 22.3416 16.2218 22.1659 16.4531 21.9405C16.7596 21.643 16.9955 21.2539 17.1608 20.7731C17.296 20.3794 17.3636 19.9107 17.3636 19.3669C17.3636 18.7479 17.2915 18.2273 17.1473 17.8052ZM15.8491 20.5185C15.759 20.8145 15.6426 21.0271 15.4998 21.1562C15.3571 21.2855 15.1776 21.3771 14.9613 21.4312C14.796 21.4733 14.527 21.4943 14.1545 21.4943H13.1584V17.1178H13.7578C14.3016 17.1178 14.6668 17.1388 14.853 17.1809C15.1024 17.235 15.3083 17.3387 15.4705 17.492C15.6328 17.6452 15.759 17.8585 15.8491 18.132C15.9393 18.4054 15.9844 18.7975 15.9844 19.3084C15.9844 19.8191 15.9393 20.2225 15.8491 20.5185Z" fill="black"/>
<path d="M23.0337 17.1178V16H18.5039V22.6076H19.838V19.7996H22.5965V18.6818H19.838V17.1178H23.0337Z" fill="black"/>
</svg>
